#!OML:ASF H:\Terrain\Patient Classification 1\Terrain2\Thursday\justin.ASF
:FULLY-SPECIFIED
:DEGREES
3982
root 30.5027 17.5132 -11.4792 1321.73 -99.6736 -241.883
lowerback 8.49607 0.59899 7.23265
upperback 2.91328 1.28763 4.9196
thorax -1.67608 0.55072 0.924108
lowerneck -11.862 -1.57419 -10.5948
upperneck 35.0479 -2.70386 5.50182
head 14.1712 -2.26339 3.60063
rclavicle 1.07344e-014 -1.98785e-014
rhumerus -32.6679 -12.9257 -75.0625
rradius 25.1824
rwrist -8.62436
rhand -23.0885 8.52196
rfingers 7.12502
rthumb 3.35765 -21.4313
lclavicle 1.07344e-014 -1.98785e-014
lhumerus -34.535 5.1976 84.7494
lradius 34.8977
lwrist 3.77404
lhand -20.7936 20.6509
lfingers 7.12502
lthumb 5.57363 50.5576
rfemur 0.494865 -4.30624 34.673
rtibia 20.2526
rfoot -17.8254 3.87021
rtoes 15.4806
lfemur -35.9539 6.00049 -6.67234
ltibia 75.7843
lfoot -4.72988 -16.017
ltoes -0.570855
3983
root 30.4701 17.5368 -11.4877 1322.99 -99.5526 -243.316
lowerback 8.6837 0.751159 7.46184
upperback 2.99237 1.51919 4.76999
thorax -1.67773 0.66801 0.617667
lowerneck -11.9036 -1.63122 -10.5605
upperneck 35.1204 -2.887 5.75006
head 14.2347 -2.30786 3.67228
rclavicle 9.24349e-015 5.24792e-014
rhumerus -32.6255 -13.133 -75.1954
rradius 25.0781
rwrist -8.43976
rhand -22.8266 8.47986
rfingers 7.12502
rthumb 3.61056 -21.4693
lclavicle 9.24349e-015 5.24792e-014
lhumerus -34.619 4.68322 84.7491
lradius 35.1559
lwrist 3.90125
lhand -20.6001 20.548
lfingers 7.12502
lthumb 5.76049 50.4497
rfemur 1.3986 -4.29939 34.6859
rtibia 18.9993
rfoot -17.2608 4.03008
rtoes 15.6442
lfemur -37.3722 6.57779 -6.63337
ltibia 78.3445
lfoot -5.36256 -15.8459
ltoes 2.46353
3984
root 30.4319 17.5499 -11.502 1323.32 -99.0768 -243.774
lowerback 8.72416 0.976423 7.09808
upperback 3.07805 1.78851 4.60828
thorax -1.60753 0.807885 0.624489
lowerneck -11.7608 -1.74621 -10.4829
upperneck 35.0916 -3.13206 5.84309
head 14.2157 -2.39222 3.65878
rclavicle 6.06293e-015 -3.4191e-014
rhumerus -32.6018 -13.164 -75.2466
rradius 24.9574
rwrist -8.25517
rhand -22.796 8.50343
rfingers 7.12502
rthumb 3.64011 -21.4452
lclavicle 6.06293e-015 -3.4191e-014
lhumerus -34.7471 4.18016 84.8511
lradius 35.4288
lwrist 3.90379
lhand -20.4624 20.6408
lfingers 7.12502
lthumb 5.89341 50.5388
rfemur 2.21825 -4.09556 34.3278
rtibia 17.9391
rfoot -16.9036 3.80155
rtoes 15.6198
lfemur -38.7594 7.14032 -7.07376
ltibia 80.8375
lfoot -5.9516 -15.8386
ltoes 6.56776
3985
root 30.3897 17.5646 -11.5155 1323.67 -98.656 -244.187
lowerback 8.67709 1.18104 6.77847
upperback 3.14593 2.02697 4.45387
thorax -1.50876 0.932772 0.619713
lowerneck -11.5853 -1.86318 -10.3007
upperneck 34.9684 -3.34018 5.7671
head 14.1375 -2.46455 3.55962
rclavicle 1.48095e-014 4.05521e-014
rhumerus -32.5958 -13.3921 -75.27
rradius 24.9045
rwrist -8.10761
rhand -22.5729 8.33985
rfingers 7.12502
rthumb 3.85551 -21.605
lclavicle 1.48095e-014 4.05521e-014
lhumerus -34.7705 3.83778 84.8753
lradius 35.4532
lwrist 3.89701
lhand -20.2405 20.4904
lfingers 7.12502
lthumb 6.10767 50.3824
rfemur 2.94287 -4.01408 33.9957
rtibia 16.9493
rfoot -16.5974 3.71396
rtoes 15.0018
lfemur -40.245 7.81684 -7.51309
ltibia 83.2334
lfoot -7.00212 -15.2311
ltoes 5.41715
3986
root 30.3499 17.5792 -11.5217 1323.5 -98.2354 -244.145
lowerback 8.76839 1.1654 6.41376
upperback 3.23623 1.97904 4.35795
thorax -1.47808 0.911124 0.72559
lowerneck -11.5909 -1.77296 -10.2981
upperneck 34.941 -3.15454 5.63336
head 14.1041 -2.40012 3.53121
rclavicle -1.31198e-014 -2.62396e-014
rhumerus -32.3794 -13.0188 -75.4635
rradius 24.8761
rwrist -8.06585
rhand -22.2979 8.23902
rfingers 7.12502
rthumb 4.12106 -21.7009
lclavicle -1.31198e-014 -2.62396e-014
lhumerus -34.7931 4.44831 84.6614
lradius 35.2574
lwrist 3.67087
lhand -20.0055 20.2209
lfingers 7.12502
lthumb 6.33454 50.1062
rfemur 3.7311 -4.04285 33.553
rtibia 15.998
rfoot -16.2014 3.93878
rtoes 15.3541
lfemur -41.6783 8.23038 -8.02355
ltibia 85.5702
lfoot -8.47322 -14.3149
ltoes 2.66889
3987
root 30.3079 17.5906 -11.5178 1324.45 -98.2317 -245.391
lowerback 8.98875 1.05503 6.48883
upperback 3.35934 1.84172 4.50336
thorax -1.47745 0.838456 0.845572
lowerneck -11.5924 -1.62807 -10.6357
upperneck 34.9098 -2.8581 5.66972
head 14.0663 -2.31138 3.65019
rclavicle 8.64713e-015 3.18055e-014
rhumerus -32.1275 -11.9978 -75.664
rradius 24.935
rwrist -8.25112
rhand -22.3221 8.11587
rfingers 7.12502
rthumb 4.09772 -21.8245
lclavicle 8.64713e-015 3.18055e-014
lhumerus -34.9649 5.4655 84.4963
lradius 35.0393
lwrist 3.38201
lhand -21.0902 20.5367
lfingers 7.12502
lthumb 5.28729 50.4507
rfemur 4.68146 -4.32787 33.5121
rtibia 15.0685
rfoot -15.8581 4.37162
rtoes 15.9479
lfemur -42.9068 8.55599 -8.02605
ltibia 87.8138
lfoot -9.60612 -13.7818
ltoes 2.84137
3988
root 30.2597 17.5985 -11.5166 1327.3 -98.7249 -248.349
lowerback 8.97585 1.13643 7.19332
upperback 3.36375 1.99701 4.70425
thorax -1.43878 0.912518 0.650433
lowerneck -11.5721 -1.69821 -10.7811
upperneck 35.0576 -2.97535 5.75266
head 14.1472 -2.37886 3.69652
rclavicle -3.81667e-014 -2.06736e-014
rhumerus -32.1787 -11.7804 -75.6706
rradius 24.9697
rwrist -8.42197
rhand -22.4505 8.24256
rfingers 7.12502
rthumb 3.97375 -21.7001
lclavicle -3.81667e-014 -2.06736e-014
lhumerus -35.1474 5.64809 84.4647
lradius 34.8329
lwrist 3.24431
lhand -23.4262 21.5107
lfingers 7.12502
lthumb 3.03151 51.4689
rfemur 5.3541 -4.46427 34.1376
rtibia 14.2724
rfoot -15.5897 4.57323
rtoes 16.022
lfemur -44.4002 9.09926 -7.42778
ltibia 89.9477
lfoot -10.4698 -13.6877
ltoes 3.38529
3989
root 30.2105 17.6173 -11.5283 1328.05 -98.1733 -248.978
lowerback 8.81064 1.36705 6.73353
upperback 3.32202 2.26165 4.48642
thorax -1.39304 1.05065 0.65591
lowerneck -11.6265 -1.80404 -10.5201
upperneck 35.3674 -3.21176 5.6879
head 14.3213 -2.46921 3.59517
rclavicle 3.71727e-014 4.77083e-015
rhumerus -32.2825 -12.1913 -75.7414
rradius 24.9395
rwrist -8.29999
rhand -22.6704 8.59426
rfingers 7.12502
rthumb 3.76139 -21.3523
lclavicle 3.71727e-014 4.77083e-015
lhumerus -35.1673 5.74408 84.2999
lradius 34.485
lwrist 2.82775
lhand -24.9474 21.8273
lfingers 7.12502
lthumb 1.56239 51.8013
rfemur 5.90455 -4.07264 33.7111
rtibia 13.3618
rfoot -15.1548 4.2659
rtoes 15.3983
lfemur -45.9168 9.53841 -8.15339
ltibia 91.7675
lfoot -11.548 -13.4915
ltoes 2.07331
3990
root 30.1644 17.6348 -11.5355 1327.43 -97.3794 -248.486
lowerback 8.916 1.46953 6.07294
upperback 3.38183 2.3563 4.16983
thorax -1.40321 1.10309 0.681801
lowerneck -11.6506 -1.77781 -10.3776
upperneck 35.4724 -3.23059 5.71484
head 14.3733 -2.46006 3.58091
rclavicle -2.72335e-014 -1.90833e-014
rhumerus -32.2573 -12.5112 -75.9004
rradius 25.0082
rwrist -7.98205
rhand -22.5285 8.63703
rfingers 7.12502
rthumb 3.89838 -21.3071
lclavicle -2.72335e-014 -1.90833e-014
lhumerus -35.1558 6.24007 84.1039
lradius 34.1657
lwrist 2.4133
lhand -25.2286 21.5248
lfingers 7.12502
lthumb 1.29081 51.5006
rfemur 6.689 -3.68747 32.9621
rtibia 12.4722
rfoot -14.7467 3.90361
rtoes 14.3709
lfemur -47.142 9.89073 -9.21831
ltibia 93.394
lfoot -12.7018 -13.2949
ltoes -0.251778
3991
root 30.1222 17.632 -11.5337 1329.58 -97.8542 -250.969
lowerback 9.20304 1.41411 6.83294
upperback 3.48956 2.35226 4.26174
thorax -1.41736 1.09821 0.351479
lowerneck -11.7286 -1.72857 -10.5668
upperneck 35.5263 -3.14603 5.84674
head 14.413 -2.43332 3.6846
rclavicle -2.05742e-014 -9.54166e-015
rhumerus -32.1609 -12.2016 -76.1533
rradius 25.2294
rwrist -8.23852
rhand -22.137 8.38812
rfingers 7.12502
rthumb 4.27649 -21.5487
lclavicle -2.05742e-014 -9.54166e-015
lhumerus -35.2449 6.48969 84.0518
lradius 34.0402
lwrist 2.60014
lhand -25.3034 21.1612
lfingers 7.12502
lthumb 1.2185 51.1375
rfemur 7.50189 -3.70874 33.5685
rtibia 11.8149
rfoot -14.4993 3.8566
rtoes 13.7919
lfemur -48.4269 10.4579 -8.70867
ltibia 95.0552
lfoot -13.4196 -13.6498
ltoes -1.38697
